
<svg id="Camada_2" data-name="Camada 2" xmlns="http://www.w3.org/2000/svg" viewBox="0 0 42.86 39.27">
  <defs>
    <style>
      .cls-1 {
        fill: none;
        stroke: #666;
        stroke-miterlimit: 10;
        stroke-width: .83px;
      }
    </style>
  </defs>
  <g id="Camada_1-2" data-name="Camada 1">
    <path class="cls-1" d="m12.46,16.49c1.14,1.77,2.8,3.97,5.16,6.14,3.06,2.82,6.13,4.52,8.36,5.53.73-1.43,2.57-4.61,5.28-4.79,1.02-.07,1.44.33,4.63,1.94,5.05,2.54,5.83,2.47,6.31,3.59,1.16,2.72-2.06,6.32-2.46,6.76-2.04,2.24-4.55,2.95-5.65,3.19-2.6-.08-15.69-.76-25.31-11.43C2.73,20.74.99,13.38.41,9.98c.01-1.02.18-4.07,2.46-6.51C5.18,1,9.32-.48,11.47,1.01c.75.52.65.99,1.97,4.3,1.77,4.45,2.5,4.98,2.33,6.51-.09.85-.54,2.7-3.32,4.67Z"/>
  </g>
</svg>