<?xml version="1.0" encoding="UTF-8"?>
<svg id="Camada_2" data-name="Camada 2" xmlns="http://www.w3.org/2000/svg" viewBox="0 0 30.01 29.28">
  <defs>
    <style>
      .cls-1 {
        fill: none;
        stroke-width: .71px;
      }

      .cls-1, .cls-2 {
        stroke: #666;
        stroke-miterlimit: 10;
      }

      .cls-2 {
        fill: #666;
        stroke-width: .07px;
      }
    </style>
  </defs>
  <g id="Camada_1-2" data-name="Camada 1">
    <g>
      <path class="cls-2" d="m6.7,12.37v10.18c-2.22.65-4.46.31-5.65-1.06-.91-1.04-.95-2.37-.99-3.67-.05-1.57-.1-3.59,1.34-4.88,1.31-1.16,3.38-1.32,5.3-.57Z"/>
      <path class="cls-1" d="m4.1,12.09C3.73,5.81,8.69.5,14.68.36c6.17-.14,11.47,5.25,11.09,11.73"/>
      <path class="cls-1" d="m25.78,22.83c-.18.65-.61,1.86-1.7,2.9-2.19,2.11-5.15,1.75-5.58,1.7"/>
      <path class="cls-2" d="m23.31,12.37v10.18c2.22.65,4.46.31,5.65-1.06.91-1.04.95-2.37.99-3.67.05-1.57.1-3.59-1.34-4.88-1.31-1.16-3.38-1.32-5.3-.57Z"/>
      <ellipse class="cls-2" cx="15.6" cy="27.34" rx="3.25" ry="1.91"/>
    </g>
  </g>
</svg>