<?xml version="1.0" encoding="UTF-8"?>
<svg id="Camada_2" data-name="Camada 2" xmlns="http://www.w3.org/2000/svg" viewBox="0 0 39.84 39.94">
  <defs>
    <style>
      .cls-1 {
        fill: none;
        stroke: #666;
        stroke-miterlimit: 10;
        stroke-width: .83px;
      }
    </style>
  </defs>
  <g id="Camada_1-2" data-name="Camada 1">
    <g>
      <path class="cls-1" d="m6.32,33.26l2.02-5.13c-.38-.49-4.91-6.52-2.49-13.82,2.59-7.79,10.64-9.64,11.34-9.79.79-.17,8.22-1.6,13.82,3.88,5.81,5.67,4.26,13.48,4.14,14-1.21,5.57-5.57,10.28-11.3,11.57-6.2,1.4-11.09-1.84-11.95-2.43-1.86.57-3.73,1.14-5.59,1.71Z"/>
      <path class="cls-1" d="m.64,39.32c1.15-3.46,2.3-6.92,3.44-10.37-.61-.99-4.67-7.79-2.03-15.8C5.3,3.3,15.59.95,16.38.78c.99-.21,10.38-2.02,17.47,4.91,7.34,7.17,5.38,17.03,5.24,17.69-1.55,7.14-7.17,13.01-14.28,14.62-6.32,1.43-11.5-1.04-13.09-1.87-3.69,1.07-7.38,2.13-11.07,3.2Z"/>
      <path class="cls-1" d="m16.63,17.79c.54.84,1.33,1.88,2.45,2.91,1.45,1.34,2.91,2.14,3.96,2.62.34-.68,1.22-2.19,2.5-2.27.48-.03.68.16,2.19.92,2.39,1.21,2.76,1.17,2.99,1.7.55,1.29-.97,2.99-1.16,3.2-.97,1.06-2.16,1.4-2.68,1.51-1.23-.04-7.44-.36-12-5.42-2.86-3.17-3.69-6.66-3.96-8.27,0-.48.08-1.93,1.16-3.09,1.1-1.17,3.06-1.87,4.08-1.16.36.25.31.47.93,2.04.84,2.11,1.19,2.36,1.11,3.09-.04.4-.26,1.28-1.57,2.21Z"/>
    </g>
  </g>
</svg>